<svg width="128" height="128" viewBox="0 0 128 128" fill="none" xmlns="http://www.w3.org/2000/svg">
<g clip-path="url(#clip0)">
<path d="M124.557 110.146C126.928 106.794 128.139 102.758 127.987 98.6055C127.814 93.8428 125.861 89.3614 122.488 85.9893L114.123 77.6241C115.846 71.291 116.353 64.7676 115.625 58.2129C115.511 57.1846 114.584 56.4444 113.555 56.5567C112.525 56.6709 111.784 57.5977 111.898 58.627C112.493 63.9834 112.197 69.3174 111.027 74.5274L108.344 71.8438C106.968 70.4678 105.137 69.71 103.189 69.71C101.237 69.71 99.4063 70.4678 98.0332 71.8448C95.1934 74.6875 95.1934 79.3125 98.0342 82.1534L105.079 89.1953C103.111 92.3916 100.761 95.3692 98.0742 98.0576C86.3516 109.78 69.5117 114.602 53.4629 111.02L56.1504 108.332C57.5264 106.955 58.2842 105.126 58.2842 103.18C58.2842 101.229 57.5254 99.3975 56.1494 98.0244C53.3086 95.1846 48.6846 95.1846 45.8398 98.0244L38.7861 105.077C35.5693 103.102 32.583 100.747 29.8965 98.0576C27.0674 95.2285 24.6045 92.0694 22.5713 88.6709C22.5518 88.6309 22.5371 88.5889 22.5137 88.5508C21.7197 87.2051 20.9951 85.8301 20.3564 84.4561C19.4316 82.4864 18.6328 80.4278 17.9854 78.3389C17.9561 78.2451 17.918 78.1563 17.876 78.0703C16.0479 72.0772 15.4063 65.8653 15.9727 59.6006C16.0664 58.5694 15.3057 57.6582 14.2744 57.5645C13.2461 57.4698 12.332 58.2315 12.2383 59.2627C11.6514 65.7393 12.2647 72.1651 14.0557 78.3809L5.98145 86.4551C2.62598 89.8096 0.673831 94.2657 0.483402 99.001C0.317386 103.129 1.49903 107.148 3.83301 110.496L3.64551 110.684C2.23535 112.094 1.45899 113.968 1.45899 115.961C1.45899 117.954 2.23535 119.828 3.64551 121.238L7.12207 124.715C8.57618 126.17 10.4873 126.897 12.3984 126.897C14.3096 126.897 16.2197 126.17 17.6748 124.715L17.8428 124.547C21.0254 126.801 24.7939 127.993 28.667 127.993C29.8184 127.993 30.9795 127.888 32.1357 127.674C33.1543 127.485 33.8272 126.507 33.6387 125.489C33.4502 124.471 32.4697 123.8 31.4541 123.986C27.626 124.694 23.752 123.913 20.5469 121.844L24.4961 117.895C25.4648 116.926 26.1338 115.738 26.458 114.442C29.2275 116.365 33.0693 116.097 35.5352 113.63L40.3926 108.773C40.3955 108.771 40.3984 108.768 40.4023 108.764L48.4902 100.677C49.8721 99.2969 52.1191 99.2969 53.5 100.678C54.167 101.343 54.5342 102.231 54.5342 103.18C54.5342 104.124 54.166 105.013 53.4981 105.681L48.4981 110.681C48.4902 110.688 48.4844 110.694 48.4775 110.701L39.3525 119.825C38.8564 120.321 38.3242 120.785 37.7695 121.205C36.9434 121.829 36.7803 123.005 37.4053 123.831C37.7734 124.318 38.334 124.575 38.9014 124.575C39.2959 124.575 39.6934 124.451 40.0313 124.195C40.7227 123.673 41.3867 123.095 42.0039 122.477L50.3662 114.116C54.8652 115.335 59.4395 115.931 63.9805 115.931C68.8604 115.931 73.6982 115.239 78.3545 113.899L86.4629 122.011C89.8184 125.365 94.2744 127.317 99.0107 127.507C99.2656 127.518 99.5195 127.522 99.7734 127.522C103.632 127.522 107.366 126.346 110.507 124.156L110.696 124.346C112.15 125.8 114.062 126.527 115.973 126.527C117.884 126.527 119.794 125.8 121.249 124.346L124.726 120.869C126.136 119.459 126.912 117.585 126.912 115.592C126.912 113.599 126.136 111.725 124.726 110.315L124.557 110.146ZM4.2295 99.1524C4.38184 95.3604 5.94532 91.793 8.63184 89.1065L15.377 82.3623C16.2656 84.7149 17.3262 87.003 18.5488 89.2022L14.8262 92.9239C13.4834 94.2647 12.7441 96.0498 12.7441 97.9492C12.7441 99.378 13.1621 100.742 13.9414 101.901C12.667 102.216 11.46 102.87 10.4658 103.863L6.53614 107.793C4.917 105.232 4.10547 102.23 4.2295 99.1524V99.1524ZM21.8447 115.243L16.3945 120.692C16.3945 120.693 16.3936 120.693 16.3926 120.694L15.0234 122.064C13.5762 123.511 11.2207 123.511 9.77246 122.064L6.2959 118.587C5.59473 117.886 5.20801 116.953 5.20801 115.961C5.20801 114.97 5.59473 114.037 6.2959 113.336L7.63672 111.995C7.6416 111.99 7.64649 111.986 7.65039 111.981L13.1172 106.516C13.8408 105.792 14.791 105.43 15.7422 105.43C16.6885 105.43 17.6338 105.789 18.3564 106.506L21.6777 109.825L21.8447 109.992C22.5459 110.693 22.9316 111.626 22.9316 112.617C22.9326 113.609 22.5459 114.542 21.8447 115.243ZM32.8838 110.979C32.25 111.613 31.4063 111.963 30.5098 111.963C29.6133 111.963 28.7695 111.613 28.1357 110.979L24.5147 107.358C24.5147 107.358 24.4961 107.341 24.4961 107.34L22.877 105.721L21.0195 103.864C21.0156 103.86 21.0107 103.856 21.0068 103.853L17.4775 100.324C16.8428 99.6905 16.4932 98.8467 16.4932 97.9492C16.4932 97.0528 16.8428 96.21 17.4775 95.5762L20.5547 92.4991C22.2617 95.0899 24.2041 97.5342 26.3584 99.795L25.3945 100.759C24.6621 101.491 24.6621 102.678 25.3945 103.41C25.7607 103.776 26.2412 103.959 26.7207 103.959C27.2002 103.959 27.6807 103.776 28.0469 103.41L29.042 102.415C31.2314 104.408 33.583 106.208 36.0684 107.795L32.8838 110.979ZM100.687 74.4942C101.352 73.8272 102.24 73.46 103.188 73.46C104.136 73.46 105.024 73.8282 105.692 74.4951L119.837 88.6407C124.878 93.6817 125.613 101.59 121.854 107.443L117.905 103.494C116.917 102.507 115.719 101.855 114.453 101.538C115.278 100.356 115.725 98.9532 115.725 97.4815C115.725 95.583 114.985 93.7989 113.643 92.4561L100.686 79.502C99.3057 78.1221 99.3057 75.876 100.687 74.4942V74.4942ZM99.791 101.62L100.768 102.597C101.134 102.962 101.614 103.146 102.094 103.146C102.573 103.146 103.054 102.962 103.42 102.596C104.151 101.863 104.151 100.677 103.419 99.9444L102.409 98.9346C104.407 96.7412 106.209 94.3916 107.795 91.9121L110.991 95.1075C111.626 95.7412 111.975 96.584 111.975 97.4815C111.975 98.378 111.626 99.2207 110.991 99.8555L107.361 103.485C107.358 103.488 107.354 103.491 107.352 103.494L103.875 106.971C103.871 106.974 103.868 106.978 103.865 106.98L100.334 110.513C99.0244 111.821 96.8945 111.821 95.584 110.513L92.4854 107.413C95.0645 105.721 97.5117 103.788 99.791 101.62V101.62ZM99.1602 123.761C95.3682 123.608 91.8008 122.045 89.1143 119.359L82.3496 112.594C83.6055 112.121 84.8447 111.6 86.0566 111.032C87.1094 110.541 88.1621 110.004 89.1982 109.431L92.9326 113.164C95.3691 115.6 99.1465 115.894 101.906 114.049C102.229 115.354 102.899 116.551 103.874 117.525L107.802 121.452C105.24 123.071 102.235 123.883 99.1602 123.761V123.761ZM122.074 118.217L118.597 121.693C117.15 123.141 114.795 123.142 113.347 121.693L106.526 114.873C105.824 114.172 105.438 113.239 105.438 112.248C105.438 111.259 105.823 110.328 106.521 109.628L110.008 106.142C110.731 105.421 111.68 105.061 112.628 105.061C113.578 105.061 114.529 105.422 115.253 106.146L120.735 111.628C120.736 111.628 120.737 111.629 120.737 111.63L122.074 112.966C122.776 113.667 123.162 114.6 123.162 115.592C123.162 116.584 122.775 117.516 122.074 118.217V118.217Z" fill="white"/>
<path d="M19.6588 56.134C21.0348 57.51 22.8648 58.2678 24.8111 58.2678C26.7633 58.2678 28.5943 57.51 29.9674 56.1331C32.8072 53.2903 32.8072 48.6653 29.9664 45.8245L22.8902 38.7493C24.7222 35.7708 26.8892 32.9856 29.3521 30.4436C29.4049 30.4006 29.4566 30.3557 29.5064 30.3059C29.568 30.2444 29.6226 30.178 29.6744 30.1096C29.7476 30.0354 29.8219 29.9602 29.8961 29.885C32.6949 27.0872 35.8131 24.6516 39.1656 22.636C39.2613 22.5989 39.3551 22.554 39.4459 22.5003C40.7799 21.7122 42.1539 20.9866 43.5348 20.343C45.5113 19.4172 47.5699 18.6194 49.6549 17.9729C49.7642 17.9387 49.8678 17.8928 49.9674 17.8401C57.9986 15.4065 66.4371 15.1047 74.5807 16.9387L71.8629 19.6565C70.4849 21.0335 69.7262 22.8635 69.7262 24.8088C69.7262 26.7581 70.4859 28.5891 71.8629 29.9631C74.7047 32.8049 79.3287 32.8049 82.1695 29.9631L89.2369 22.8967C92.4322 24.8645 95.4 27.2092 98.0728 29.885C101.088 32.9026 103.685 36.2864 105.792 39.9417C106.615 41.3733 108.959 46.3245 109.974 49.4465C110.001 49.5852 110.044 49.72 110.101 49.8499C110.102 49.8528 110.103 49.8547 110.103 49.8567C110.48 51.1018 111.226 50.969 111.815 50.969H111.817C112.296 50.968 112.775 50.7854 113.141 50.4202L122.031 41.5335C125.386 38.178 127.338 33.7229 127.528 28.9866C127.694 24.8596 126.512 20.8391 124.178 17.4915L124.366 17.304C125.775 15.8948 126.551 14.0208 126.551 12.0266C126.551 10.0335 125.775 8.15943 124.366 6.75026L120.889 3.27369C117.979 0.364513 113.246 0.364513 110.336 3.27369L110.168 3.44166C106.816 1.07057 102.783 -0.141346 98.6246 0.0119739C93.8609 0.185802 89.3795 2.13893 86.0064 5.51197L77.6744 13.844C68.4488 11.3294 58.7926 11.3967 49.6041 14.0374L41.5367 5.96803C38.1812 2.61354 33.7252 0.661388 28.9889 0.471935C24.8658 0.304943 20.8414 1.48756 17.4928 3.82154L17.3053 3.63307C14.3951 0.723888 9.6617 0.724865 6.75155 3.63307L3.27596 7.10963C1.86581 8.51881 1.08944 10.3928 1.08944 12.386C1.08944 14.3801 1.86581 16.2542 3.27596 17.6633L3.44491 17.8323C1.07284 21.1848 -0.137124 25.221 0.0132662 29.3733C0.186118 34.136 2.13924 38.6165 5.51229 41.9895L19.6588 56.134ZM103.437 20.5696C103.462 20.595 103.488 20.6223 103.514 20.6477L110.533 27.6633C111.168 28.2981 111.517 29.1419 111.517 30.0383C111.517 30.9358 111.169 31.7786 110.533 32.4124L107.45 35.4954C105.747 32.9036 103.806 30.4583 101.653 28.1926L102.617 27.2297C103.349 26.4973 103.349 25.3098 102.617 24.5784C101.884 23.846 100.697 23.846 99.9654 24.5784L98.9742 25.5696C96.7857 23.5725 94.4371 21.7698 91.9547 20.1809L95.1265 17.009C96.4361 15.6995 98.568 15.6995 99.8775 17.009L103.437 20.5696ZM123.782 28.8362C123.63 32.6282 122.067 36.1946 119.38 38.8811L112.586 45.6731C111.623 43.1204 110.21 40.2571 109.443 38.8059L113.183 35.0647C114.527 33.7229 115.266 31.9387 115.266 30.0393C115.266 28.6106 114.848 27.2473 114.069 26.0872C115.343 25.7727 116.551 25.1184 117.545 24.1243L121.474 20.1956C123.094 22.7571 123.906 25.759 123.782 28.8362ZM115.613 4.83912C116.564 4.83912 117.514 5.20143 118.238 5.92506L121.715 9.40162C122.417 10.1028 122.802 11.0344 122.802 12.0266C122.802 13.0188 122.417 13.9514 121.715 14.6526L120.351 16.0169C120.347 16.0208 120.342 16.0247 120.339 16.0286L114.894 21.4729C113.447 22.9202 111.091 22.9202 109.644 21.4729L106.168 17.9963C104.719 16.5481 104.719 14.1926 106.167 12.7454L112.988 5.92506C113.712 5.20045 114.662 4.83912 115.613 4.83912V4.83912ZM88.6588 8.16236C93.7008 3.12037 101.61 2.38502 107.465 6.14479L103.515 10.094C102.527 11.0823 101.875 12.2815 101.558 13.5481C98.7887 11.6223 94.943 11.8899 92.4752 14.3577L79.5201 27.3118C78.1402 28.6917 75.8951 28.6917 74.5133 27.3108C73.8443 26.6438 73.4771 25.7551 73.4771 24.8088C73.4771 23.8655 73.8453 22.9768 74.5152 22.3069L88.6588 8.16236ZM17.0113 32.8704C16.3765 32.2366 16.0279 31.3938 16.0279 30.4963C16.0279 29.5999 16.3765 28.7571 17.0113 28.1223L27.6695 17.4661C28.9791 16.1565 31.109 16.1565 32.4185 17.4661L35.481 20.5276C32.8902 22.2317 30.4439 24.1731 28.1793 26.3274L27.233 25.3811C26.5006 24.6497 25.314 24.6497 24.5816 25.3811C23.8502 26.1135 23.8502 27.301 24.5816 28.0335L25.5562 29.0071C23.5592 31.1975 21.7594 33.551 20.1734 36.0325L17.0113 32.8704ZM28.8394 4.21803C32.6314 4.3694 36.1998 5.93287 38.8863 8.6194L45.6226 15.3567C43.2672 16.2454 40.9781 17.3059 38.7808 18.5247L35.0699 14.8137C32.6344 12.3782 28.8551 12.0842 26.0953 13.9309C25.773 12.6253 25.1021 11.428 24.1265 10.4534L20.1978 6.52565C22.7603 4.90553 25.7642 4.09401 28.8394 4.21803ZM5.92733 9.761L9.40389 6.28443C10.1275 5.5608 11.0777 5.19947 12.0289 5.19947C12.9801 5.19947 13.9303 5.5608 14.6549 6.28443L16.0133 7.64381C16.0201 7.64967 16.0269 7.65748 16.0338 7.66334L21.4762 13.1047C22.1773 13.8069 22.5631 14.7385 22.5631 15.7307C22.5631 16.7229 22.1773 17.6546 21.4762 18.3557L17.9986 21.8323C16.5514 23.2796 14.1959 23.2805 12.7476 21.8323L5.92733 15.012C5.22518 14.3108 4.83944 13.3782 4.83944 12.386C4.83944 11.3948 5.22518 10.4622 5.92733 9.761ZM6.14803 20.5354L10.0963 24.4837C11.0846 25.4719 12.2838 26.1233 13.5494 26.4407C12.7242 27.6223 12.2779 29.0247 12.2779 30.4963C12.2779 32.3948 13.0181 34.1799 14.3599 35.5217L27.315 48.4758C28.6949 49.8557 28.6949 52.1018 27.314 53.4837C26.648 54.1506 25.7594 54.5178 24.8111 54.5178C23.8668 54.5178 22.9781 54.1506 22.3101 53.4827L8.16366 39.3372C3.12167 34.2962 2.38729 26.3889 6.14803 20.5354Z" fill="white"/>
<path d="M38.7393 70.6005L29.5371 78.7568C28.0849 80.0439 27.9502 82.2724 29.2373 83.7245L34.3076 89.4443C34.3135 89.4501 34.3183 89.457 34.3232 89.4638C34.3281 89.4687 34.332 89.4726 34.3369 89.4765L39.2002 94.9628C39.8935 95.746 40.8623 96.1454 41.835 96.1454C42.665 96.1454 43.498 95.8544 44.167 95.2616L53.3691 87.1044C54.8223 85.8183 54.9561 83.5888 53.6689 82.1366L43.707 70.8993C42.4199 69.4472 40.1914 69.3134 38.7393 70.6005V70.6005ZM41.0537 73.5595L44.6689 77.6366L35.8682 85.5527L32.1963 81.4101L41.0537 73.5595ZM41.8525 92.3027L38.3564 88.3583L47.1562 80.4433L50.71 84.4511L41.8525 92.3027Z" fill="white"/>
<path d="M84.5469 33.3828L71.3467 45.082C70.5859 45.7568 70.1338 46.6875 70.0723 47.7021C70.0117 48.7168 70.3486 49.6943 71.0234 50.455L80.6055 61.2636C81.2793 62.0244 82.2099 62.4765 83.2246 62.538C83.3027 62.5429 83.3808 62.5449 83.458 62.5449C84.3887 62.5449 85.2764 62.2089 85.9775 61.5869L99.1777 49.8867C99.9385 49.2129 100.391 48.2822 100.452 47.2675C100.514 46.2519 100.176 45.2744 99.501 44.5136L89.9199 33.706C88.5273 32.1357 86.1172 31.9912 84.5469 33.3828V33.3828ZM96.709 47.042C96.708 47.0654 96.6973 47.0752 96.6904 47.08V47.081L83.4902 58.7802C83.4834 58.7861 83.4756 58.7978 83.4502 58.7949C83.4267 58.7939 83.417 58.7822 83.4111 58.7763L73.8301 47.9677C73.8242 47.9619 73.8144 47.9502 73.8154 47.9277C73.8174 47.9043 73.8281 47.8945 73.834 47.8886L87.0342 36.1894C87.0449 36.1796 87.0586 36.1748 87.0713 36.1748C87.0879 36.1748 87.1025 36.1806 87.1133 36.1933L96.6953 47.0019C96.7012 47.0078 96.7109 47.0195 96.709 47.042Z" fill="white"/>
</g>
<defs>
<clipPath id="clip0">
<rect width="128" height="128" fill="white"/>
</clipPath>
</defs>
</svg>
